<?xml version="1.0" encoding="UTF-8" standalone="no"?>
<svg
   version="1.1"
   id="Layer_1"
   x="0px"
   y="0px"
   width="700"
   viewBox="0 0 700 700"
   enable-background="new 0 0 1408 768"
   xml:space="preserve"
   sodipodi:docname="logo-pawsitive-friends.svg"
   height="700"
   inkscape:version="1.2.2 (b0a8486541, 2022-12-01)"
   xmlns:inkscape="http://www.inkscape.org/namespaces/inkscape"
   xmlns:sodipodi="http://sodipodi.sourceforge.net/DTD/sodipodi-0.dtd"
   xmlns="http://www.w3.org/2000/svg"
   xmlns:svg="http://www.w3.org/2000/svg"><defs
   id="defs19" /><sodipodi:namedview
   id="namedview17"
   pagecolor="#ffffff"
   bordercolor="#000000"
   borderopacity="0.25"
   inkscape:showpageshadow="2"
   inkscape:pageopacity="0.0"
   inkscape:pagecheckerboard="0"
   inkscape:deskcolor="#d1d1d1"
   showgrid="false"
   inkscape:zoom="0.83984375"
   inkscape:cx="223.25581"
   inkscape:cy="353.04186"
   inkscape:window-width="1600"
   inkscape:window-height="812"
   inkscape:window-x="0"
   inkscape:window-y="0"
   inkscape:window-maximized="1"
   inkscape:current-layer="Layer_1" />
<path
   fill="#ffffff"
   opacity="0"
   stroke="none"
   d="m 849,769 c -282.96759,0 -565.43521,0 -847.951405,0 0,-255.93823 0,-511.87649 0,-767.907368 469.169145,0 938.386955,0 1407.778105,0 0,255.907278 0,511.907308 0,767.907368 -186.3702,0 -372.8484,0 -559.8267,0 M 558.8794,644.70923 c 18.25421,7.08508 37.20342,9.60937 56.4121,6.20416 14.36084,-2.54578 28.53553,-6.45544 42.54419,-10.59924 20.62415,-6.10083 41.43103,-10.93256 62.92499,-7.12311 14.68982,2.60364 29.19513,6.56647 43.52899,10.78461 20.80634,6.12304 41.69812,10.41266 63.47388,7.05011 27.74945,-4.28491 50.42804,-16.97705 65.27356,-41.35511 19.43622,-31.9165 17.75391,-64.96887 3.50622,-98.15045 -10.43402,-24.29996 -28.42498,-42.85052 -47.4992,-60.44381 -14.87958,-13.72422 -28.30615,-28.65311 -39.13696,-45.84064 -7.27417,-11.54343 -13.87952,-23.65537 -22.33649,-34.27692 -19.59784,-24.61401 -45.17621,-39.48276 -77.07251,-40.5625 -43.28442,-1.46527 -75.08307,18.70389 -97.91583,54.57102 -8.12989,12.77099 -15.48548,26.27008 -25.19623,37.74252 -13.40747,15.83978 -28.76618,30.02145 -43.18726,45.01138 -18.68329,19.42041 -32.53604,41.51169 -38.70917,68.16828 -10.6676,46.06451 10.52814,90.08837 53.38972,108.8197 M 683.82684,177.67935 c -8.29309,-21.71098 -20.46698,-40.74547 -39.01538,-55.12468 -16.35907,-12.68201 -34.68915,-19.17089 -55.52637,-14.70291 -22.51708,4.8282 -36.87994,19.79089 -46.26214,39.86266 -14.45416,30.92239 -13.90576,62.91409 -5.12585,95.10676 7.71063,28.27169 22.25628,52.2943 46.29254,69.75142 21.96765,15.95471 49.64361,19.6077 72.49493,4.84125 15.03253,-9.71393 24.45404,-23.83301 30.34888,-40.36148 11.84515,-33.2124 8.91705,-66.08646 -3.20661,-99.37302 m 162.06165,116.68881 c 1.76336,-2.21078 3.6261,-4.35019 5.27472,-6.64349 15.33966,-21.33917 23.55456,-45.3221 26.18115,-71.31718 2.77917,-27.5057 -0.92822,-53.74939 -15.23144,-77.96781 -16.4845,-27.91157 -46.93403,-38.907156 -77.03754,-27.11516 -17.24921,6.75672 -30.41492,19.02292 -41.12811,33.81633 -17.47901,24.13613 -26.17933,51.50113 -27.74476,81.05022 -1.3587,25.64807 2.9903,50.16934 17.88807,71.82102 16.08917,23.38326 40.14685,33.20126 66.29803,26.80346 18.48206,-4.52161 32.73865,-15.84906 45.49988,-30.44739 m 27.11694,149.22855 c 22.82526,10.78818 44.67523,7.09653 65.1471,-5.71137 25.03466,-15.6625 40.92846,-38.72747 49.91919,-66.58053 7.72003,-23.91653 9.1549,-47.96207 0.15216,-72.00183 -11.61719,-31.02127 -40.61328,-45.79532 -72.37317,-36.63742 -21.59778,6.22766 -37.9859,19.81192 -50.7688,37.72867 -19.74921,27.68084 -30.06946,58.27969 -24.98084,92.60412 3.16126,21.32395 12.50617,39.26938 32.90436,50.59836 M 562.38928,417.83652 c 4.6825,-10.0484 7.82709,-20.52671 8.61304,-31.62503 1.88537,-26.62281 -4.82129,-51.21091 -18.13593,-74.06781 -11.6604,-20.017 -27.1571,-36.10611 -48.56704,-45.94001 -33.38602,-15.33468 -67.5632,-2.17526 -81.79505,31.66391 -6.77374,16.10605 -7.97873,32.90689 -5.57736,50.01951 4.86374,34.66027 20.28583,63.53183 48.01428,85.24883 14.19168,11.11493 30.53516,17.16846 48.69855,16.55439 22.14514,-0.74878 37.81159,-12.20175 48.74951,-31.85379 z"
   id="path2" />





<path
   fill="#fa7c55"
   opacity="1"
   stroke="none"
   d="m 203.41917,615.12073 c -42.51367,-18.56879 -63.70941,-62.59265 -53.04181,-108.65716 6.17313,-26.65659 20.02588,-48.74787 38.70917,-68.16828 14.42108,-14.98993 29.77979,-29.1716 43.18726,-45.01138 9.71075,-11.47244 17.06634,-24.97153 25.19623,-37.74252 22.83276,-35.86713 54.63141,-56.03629 97.91583,-54.57102 31.8963,1.07974 57.47467,15.94849 77.07251,40.5625 8.45697,10.62155 15.06232,22.73349 22.33649,34.27692 10.83081,17.18753 24.25738,32.11642 39.13696,45.84064 19.07422,17.59329 37.06518,36.14385 47.4992,60.44381 14.24769,33.18158 15.93,66.23395 -3.50622,98.15045 -14.84552,24.37806 -37.52411,37.0702 -65.27356,41.35511 -21.77576,3.36255 -42.66754,-0.92707 -63.47388,-7.05011 -14.33386,-4.21814 -28.83917,-8.18097 -43.52899,-10.78461 -21.49396,-3.80945 -42.30084,1.02228 -62.92499,7.12311 -14.00866,4.1438 -28.18335,8.05346 -42.54419,10.59924 -19.20868,3.40521 -38.15789,0.88092 -56.76001,-6.3667 m 164.146,-77.38299 c 3.64441,-2.90088 7.31909,-5.76471 10.92792,-8.70917 15.02679,-12.26038 28.88635,-25.68915 39.81732,-41.79804 7.87128,-11.59982 13.25165,-24.06924 12.63995,-38.67501 -1.29602,-30.94376 -36.22168,-50.58539 -62.7182,-34.59269 -7.03271,4.24482 -12.69342,10.76273 -19.17035,16.39905 -0.47515,-0.6629 -1.58899,-2.2572 -2.7434,-3.82153 -11.7262,-15.88962 -30.08448,-21.96951 -48.13416,-15.94952 -18.40973,6.14007 -29.54492,21.96713 -29.0639,41.98052 0.37274,15.50733 7.4978,28.36417 16.67865,40.35193 16.81323,21.95355 38.29156,38.75434 60.27221,55.03601 2.71436,2.01062 5.06775,1.99244 7.67701,0.0218 4.38433,-3.31109 8.82647,-6.54577 13.81695,-10.2434 z"
   id="path4" /><path
   fill="#fa7c55"
   opacity="1"
   stroke="none"
   d="m 328.84508,148.61798 c 11.9931,32.92197 14.9212,65.79603 3.07605,99.00843 -5.89484,16.52847 -15.31635,30.64755 -30.34888,40.36148 -22.85132,14.76645 -50.52728,11.11346 -72.49493,-4.84125 -24.03626,-17.45712 -38.58191,-41.47973 -46.29254,-69.75142 -8.77991,-32.19267 -9.32831,-64.18437 5.12585,-95.10676 9.3822,-20.071766 23.74506,-35.034456 46.26214,-39.862656 20.83722,-4.46798 39.1673,2.0209 55.52637,14.70291 18.5484,14.379206 30.72229,33.413696 39.14594,55.489266 z"
   id="path6" /><path
   fill="#fa7d55"
   opacity="1"
   stroke="none"
   d="m 490.53996,265.20563 c -12.52502,14.3349 -26.78161,25.66235 -45.26367,30.18396 -26.15118,6.3978 -50.20886,-3.4202 -66.29803,-26.80346 -14.89777,-21.65168 -19.24677,-46.17295 -17.88807,-71.82102 1.56543,-29.54909 10.26575,-56.91409 27.74476,-81.05022 10.71319,-14.79341 23.8789,-27.059606 41.12811,-33.816326 30.10351,-11.79199 60.55304,-0.79641 77.03754,27.115156 14.30322,24.21842 18.01061,50.46211 15.23144,77.96781 -2.62659,25.99508 -10.84149,49.97801 -26.18115,71.31718 -1.64862,2.2933 -3.51136,4.43271 -5.51093,6.90692 z"
   id="path8" /><path
   fill="#fa7c55"
   opacity="1"
   stroke="none"
   d="m 517.56877,413.98743 c -20.07385,-11.14566 -29.41876,-29.09109 -32.58002,-50.41504 -5.08862,-34.32443 5.23163,-64.92328 24.98084,-92.60412 12.7829,-17.91675 29.17102,-31.50101 50.7688,-37.72867 31.75989,-9.1579 60.75598,5.61615 72.37317,36.63742 9.00274,24.03976 7.56787,48.0853 -0.15216,72.00183 -8.99073,27.85306 -24.88453,50.91803 -49.91919,66.58053 -20.47187,12.8079 -42.32184,16.49955 -65.47144,5.52805 z"
   id="path10" /><path
   fill="#fa7d55"
   opacity="1"
   stroke="none"
   d="m 207.1118,388.74256 c -10.77276,19.32004 -26.43921,30.77301 -48.58435,31.52179 -18.16339,0.61407 -34.50687,-5.43946 -48.69855,-16.55439 -27.728455,-21.717 -43.150545,-50.58856 -48.014285,-85.24883 -2.40137,-17.11262 -1.19638,-33.91346 5.57736,-50.01951 14.23185,-33.83917 48.409035,-46.99859 81.795055,-31.66391 21.40994,9.8339 36.90664,25.92301 48.56704,45.94001 13.31464,22.8569 20.0213,47.445 18.13593,74.06781 -0.78595,11.09832 -3.93054,21.57663 -8.7782,31.95703 z"
   id="path12" /><path
   fill="#fffefd"
   opacity="1"
   stroke="none"
   d="m 367.27885,537.95307 c -4.70416,3.4823 -9.1463,6.71698 -13.53063,10.02807 -2.60926,1.97059 -4.96265,1.98877 -7.67701,-0.0218 -21.98065,-16.28167 -43.45898,-33.08246 -60.27221,-55.03601 -9.18085,-11.98776 -16.30591,-24.8446 -16.67865,-40.35193 -0.48102,-20.01339 10.65417,-35.84045 29.0639,-41.98052 18.04968,-6.01999 36.40796,0.0599 48.13416,15.94952 1.15441,1.56433 2.26825,3.15863 2.7434,3.82153 6.47693,-5.63632 12.13764,-12.15423 19.17035,-16.39905 26.49652,-15.9927 61.42218,3.64893 62.7182,34.59269 0.6117,14.60577 -4.76867,27.07519 -12.63995,38.67501 -10.93097,16.10889 -24.79053,29.53766 -39.81732,41.79804 -3.60883,2.94446 -7.28351,5.80829 -11.21424,8.9245 z"
   id="path14" />
</svg>
